<?xml version="1.0" encoding="UTF-8" standalone="no"?> <!-- Created with Vectornator for iOS (http://vectornator.io/) --><!DOCTYPE svg PUBLIC "-//W3C//DTD SVG 1.1//EN" "http://www.w3.org/Graphics/SVG/1.1/DTD/svg11.dtd">
<svg height="100%" style="fill-rule:nonzero;clip-rule:evenodd;stroke-linecap:round;stroke-linejoin:round;" xmlns:xlink="http://www.w3.org/1999/xlink" xmlns="http://www.w3.org/2000/svg" xml:space="preserve" width="100%" xmlns:vectornator="http://vectornator.io" version="1.1" viewBox="0 0 2000 2000">
<metadata>
<vectornator:setting key="DimensionsVisible" value="1"/>
<vectornator:setting key="PencilOnly" value="0"/>
<vectornator:setting key="SnapToPoints" value="0"/>
<vectornator:setting key="GuidesVisible" value="1"/>
<vectornator:setting key="RulersVisible" value="1"/>
<vectornator:setting key="CMYKEnabledKey" value="0"/>
<vectornator:setting key="SnapToEdges" value="0"/>
<vectornator:setting key="OutlineMode" value="0"/>
<vectornator:setting key="DisplayWhiteBackground" value="0"/>
<vectornator:setting key="doHistoryDisabled" value="0"/>
<vectornator:setting key="SnapToGuides" value="1"/>
<vectornator:setting key="TimeLapseWatermarkDisabled" value="0"/>
<vectornator:setting key="Units" value="Points"/>
<vectornator:setting key="SnapToGrid" value="0"/>
<vectornator:setting key="DynamicGuides" value="0"/>
<vectornator:setting key="IsolateActiveLayer" value="0"/>
</metadata>
<defs/>
<g id="_x30_9" vectornator:layerName="_x30_9">
<g opacity="1">
<path d="M233.7+874.9L162.9+892.8C160.5+893.3+158+893.3+155.5+892.8L84.7+874.9C75.7+873+66.9+878.7+65+887.7C64.8+888.8+64.7+889.9+64.6+891L64.6+1067.6C64.6+1070+65.8+1072.2+67.8+1073.6L142.4+1120.7C152.6+1127.2+165.7+1127.2+175.9+1120.7L250.7+1073.6C252.7+1072.3+253.9+1070+253.9+1067.6L253.9+891.1C253.9+881.9+246.4+874.5+237.2+874.5C236+874.5+234.8+874.6+233.7+874.9ZM159.2+1066C122.8+1066+93.2+1036.5+93.2+1000C93.2+963.6+122.7+934+159.2+934C195.6+934+225.1+963.5+225.2+999.9C225.1+1036.4+195.6+1066+159.2+1066Z" opacity="1" fill="#3e2f34"/>
<path d="M159.2+942.2C127.3+942.2+101.4+968.1+101.4+1000C101.4+1031.9+127.3+1057.8+159.2+1057.8C191.1+1057.8+217+1032+217+1000L217+1000C217+968.1+191.1+942.2+159.2+942.2ZM195.7+986.2L156.8+1025.1C151.9+1030+144+1030+139.1+1025.1L139.1+1025.1L122.7+1008.7C119.5+1005+119.9+999.5+123.6+996.3C126.9+993.5+131.8+993.5+135.1+996.3L148+1009.2L183.4+973.8C186.8+970.4+192.4+970.4+195.8+973.8C199.1+977.3+199.1+982.8+195.7+986.2Z" opacity="1" fill="#3e2f34"/>
</g>
<path d="M378.7+841.5L383.6+841.5L383.6+841.5L383.6+1158.4L383.6+1158.4L378.7+1158.4L378.7+1158.4L378.7+841.5L378.7+841.5Z" opacity="1" fill="#3e2f34"/>
<g opacity="1">
<path d="M655+912.6L655+1086.8L607.1+1086.8L607.1+1018.6L548.7+1018.6L548.7+1086.8L500.8+1086.8L500.8+912.6L548.7+912.6L548.7+976.9L607.1+976.9L607.1+912.6L655+912.6Z" opacity="1" fill="#3e2f34"/>
<path d="M815.8+1086.9L815.8+995.1L786.6+1059.6L761.1+1059.6L731.9+995.1L731.9+1086.9L684+1086.9L684+912.6L736.3+912.6L773.8+994.6L811.6+912.6L863.6+912.6L863.6+1086.8L815.8+1086.8L815.8+1086.9Z" opacity="1" fill="#3e2f34"/>
<path d="M892.6+1086.9L892.6+912.6L959.6+912.6C974+912.6+986.7+914.9+997.6+919.5C1008.6+924.1+1017.7+930.3+1025.1+938.2C1032.5+946.1+1038+955.3+1041.8+965.8C1045.6+976.4+1047.4+987.6+1047.4+999.5C1047.4+1012.8+1045.3+1024.7+1041.1+1035.5C1036.9+1046.2+1031+1055.4+1023.3+1063C1015.6+1070.6+1006.4+1076.5+995.6+1080.7C984.8+1084.9+972.8+1087+959.5+1087L892.6+1087L892.6+1086.9ZM998.9+999.5C998.9+992.8+998+986.7+996.2+981.1C994.4+975.5+991.8+970.8+988.5+966.9C985.2+963+981+959.9+976.1+957.7C971.2+955.5+965.7+954.4+959.7+954.4L940.6+954.4L940.6+1045.2L959.7+1045.2C965.9+1045.2+971.5+1044.1+976.4+1041.8C981.3+1039.5+985.4+1036.3+988.8+1032.2C992.2+1028.1+994.7+1023.3+996.4+1017.7C998+1012.1+998.9+1006.1+998.9+999.5Z" opacity="1" fill="#3e2f34"/>
<path d="M1105.4+912.6L1149.1+912.6L1209.5+1086.8L1160.9+1086.8L1150.3+1052.7L1103.9+1052.7L1093.6+1086.8L1044.8+1086.8L1105.4+912.6ZM1142.7+1020.9L1127.2+966.9L1111+1020.9L1142.7+1020.9Z" opacity="1" fill="#3e2f34"/>
<path d="M1431.1+912.6L1431.1+1086.8L1383.2+1086.8L1383.2+1018.6L1324.8+1018.6L1324.8+1086.8L1276.9+1086.8L1276.9+912.6L1324.8+912.6L1324.8+976.9L1383.2+976.9L1383.2+912.6L1431.1+912.6Z" opacity="1" fill="#3e2f34"/>
<path d="M1584.2+1045.2L1584.2+1086.9L1460+1086.9L1460+912.6L1582+912.6L1582+954.3L1507.9+954.3L1507.9+978.8L1571.2+978.8L1571.2+1017.6L1507.9+1017.6L1507.9+1045.1L1584.2+1045.1L1584.2+1045.2Z" opacity="1" fill="#3e2f34"/>
<path d="M1605.6+1086.9L1605.6+912.6L1685.6+912.6C1694.1+912.6+1702+914.3+1709.2+917.9C1716.4+921.4+1722.6+926+1727.7+931.6C1732.9+937.2+1736.9+943.7+1739.8+951C1742.7+958.3+1744.2+965.6+1744.2+973C1744.2+983.1+1742+992.6+1737.6+1001.3C1733.2+1010+1727+1017.2+1719.2+1022.8L1756+1086.9L1702+1086.9L1671.3+1033.4L1653.4+1033.4L1653.4+1086.9C1653.4+1086.9+1605.6+1086.9+1605.6+1086.9ZM1653.4+991.7L1683.6+991.7C1686.5+991.7+1689.3+990.1+1691.8+986.8C1694.3+983.5+1695.6+978.9+1695.6+973.1C1695.6+967+1694.1+962.4+1691.2+959.2C1688.3+956+1685.3+954.4+1682.4+954.4L1653.4+954.4C1653.4+954.4+1653.4+991.7+1653.4+991.7Z" opacity="1" fill="#3e2f34"/>
<path d="M1846.6+1088.4C1833.3+1088.4+1821.3+1085.9+1810.5+1080.8C1799.7+1075.7+1790.5+1069.1+1782.8+1060.8C1775.1+1052.5+1769.1+1043.1+1764.9+1032.5C1760.6+1021.9+1758.5+1010.9+1758.5+999.6C1758.5+988.2+1760.7+977.1+1765.1+966.5C1769.5+955.9+1775.7+946.5+1783.6+938.4C1791.5+930.3+1800.9+923.8+1811.8+919C1822.7+914.2+1834.6+911.8+1847.5+911.8C1860.8+911.8+1872.8+914.3+1883.6+919.4C1894.4+924.5+1903.6+931.2+1911.3+939.5C1919+947.8+1924.9+957.3+1929.1+968C1933.3+978.6+1935.4+989.5+1935.4+1000.6C1935.4+1012.1+1933.2+1023.1+1928.8+1033.6C1924.4+1044.2+1918.2+1053.5+1910.4+1061.6C1902.5+1069.7+1893.2+1076.2+1882.3+1081.1C1871.4+1085.9+1859.5+1088.4+1846.6+1088.4ZM1807.1+1000C1807.1+1005.9+1807.9+1011.6+1809.6+1017.1C1811.2+1022.6+1813.7+1027.4+1817+1031.7C1820.3+1036+1824.4+1039.4+1829.4+1042C1834.4+1044.6+1840.3+1045.9+1847.2+1045.9C1854.1+1045.9+1860+1044.6+1865.1+1041.9C1870.2+1039.2+1874.3+1035.7+1877.5+1031.3C1880.7+1027+1883.1+1022+1884.6+1016.5C1886.2+1010.9+1886.9+1005.3+1886.9+999.6C1886.9+993.7+1886.1+988+1884.4+982.5C1882.8+977+1880.3+972.2+1876.9+968C1873.5+963.8+1869.4+960.5+1864.4+957.9C1859.4+955.3+1853.6+954.1+1846.9+954.1C1840+954.1+1834.1+955.4+1829.1+958C1824.1+960.6+1820+964.1+1816.7+968.4C1813.4+972.7+1811+977.6+1809.5+983.1C1807.8+988.7+1807.1+994.3+1807.1+1000Z" opacity="1" fill="#3e2f34"/>
</g>
</g>
</svg>
