<?xml version="1.0" encoding="utf-8"?>
<!-- Generator: Adobe Illustrator 21.0.0, SVG Export Plug-In . SVG Version: 6.00 Build 0)  -->
<svg version="1.1" id="Black" xmlns="http://www.w3.org/2000/svg" xmlns:xlink="http://www.w3.org/1999/xlink" x="0px" y="0px"
	 viewBox="0 0 2000 2000" style="enable-background:new 0 0 2000 2000;" xml:space="preserve">
<g id="_x30_9">
	<g>
		<g>
			<path d="M233.7,874.9l-70.8,17.9c-2.4,0.5-4.9,0.5-7.4,0l-70.8-17.9c-9-1.9-17.8,3.8-19.7,12.8c-0.2,1.1-0.3,2.2-0.4,3.3v176.6
				c0,2.4,1.2,4.6,3.2,6l74.6,47.1c10.2,6.5,23.3,6.5,33.5,0l74.8-47.1c2-1.3,3.2-3.6,3.2-6V891.1c0-9.2-7.5-16.6-16.7-16.6
				C236,874.5,234.8,874.6,233.7,874.9z M159.2,1066c-36.4,0-66-29.5-66-66c0-36.4,29.5-66,66-66c36.4,0,65.9,29.5,66,65.9
				C225.1,1036.4,195.6,1066,159.2,1066z"/>
			<path d="M159.2,942.2c-31.9,0-57.8,25.9-57.8,57.8c0,31.9,25.9,57.8,57.8,57.8S217,1032,217,1000c0,0,0,0,0,0
				C217,968.1,191.1,942.2,159.2,942.2z M195.7,986.2l-38.9,38.9c-4.9,4.9-12.8,4.9-17.7,0c0,0,0,0,0,0l-16.4-16.4
				c-3.2-3.7-2.8-9.2,0.9-12.4c3.3-2.8,8.2-2.8,11.5,0l12.9,12.9l35.4-35.4c3.4-3.4,9-3.4,12.4,0
				C199.1,977.3,199.1,982.8,195.7,986.2z"/>
		</g>
	</g>
	<rect x="378.7" y="841.5" width="4.9" height="316.9"/>
	<g>
		<path d="M655,912.6v174.2h-47.9v-68.2h-58.4v68.2h-47.9V912.6h47.9v64.3h58.4v-64.3H655z"/>
		<path d="M815.8,1086.9v-91.8l-29.2,64.5h-25.5l-29.2-64.5v91.8H684V912.6h52.3l37.5,82l37.8-82h52v174.2H815.8z"/>
		<path d="M892.6,1086.9V912.6h67c14.4,0,27.1,2.3,38,6.9c11,4.6,20.1,10.8,27.5,18.7c7.4,7.9,12.9,17.1,16.7,27.6
			c3.8,10.6,5.6,21.8,5.6,33.7c0,13.3-2.1,25.2-6.3,36c-4.2,10.7-10.1,19.9-17.8,27.5c-7.7,7.6-16.9,13.5-27.7,17.7
			c-10.8,4.2-22.8,6.3-36.1,6.3H892.6z M998.9,999.5c0-6.7-0.9-12.8-2.7-18.4c-1.8-5.6-4.4-10.3-7.7-14.2c-3.3-3.9-7.5-7-12.4-9.2
			c-4.9-2.2-10.4-3.3-16.4-3.3h-19.1v90.8h19.1c6.2,0,11.8-1.1,16.7-3.4c4.9-2.3,9-5.5,12.4-9.6c3.4-4.1,5.9-8.9,7.6-14.5
			C998,1012.1,998.9,1006.1,998.9,999.5z"/>
		<path d="M1105.4,912.6h43.7l60.4,174.2h-48.6l-10.6-34.1h-46.4l-10.3,34.1h-48.8L1105.4,912.6z M1142.7,1020.9l-15.5-54l-16.2,54
			H1142.7z"/>
		<path d="M1431.1,912.6v174.2h-47.9v-68.2h-58.4v68.2h-47.9V912.6h47.9v64.3h58.4v-64.3H1431.1z"/>
		<path d="M1584.2,1045.2v41.7H1460V912.6h122v41.7h-74.1v24.5h63.3v38.8h-63.3v27.5H1584.2z"/>
		<path d="M1605.6,1086.9V912.6h80c8.5,0,16.4,1.7,23.6,5.3c7.2,3.5,13.4,8.1,18.5,13.7c5.2,5.6,9.2,12.1,12.1,19.4
			c2.9,7.3,4.4,14.6,4.4,22c0,10.1-2.2,19.6-6.6,28.3c-4.4,8.7-10.6,15.9-18.4,21.5l36.8,64.1h-54l-30.7-53.5h-17.9v53.5H1605.6z
			 M1653.4,991.7h30.2c2.9,0,5.7-1.6,8.2-4.9c2.5-3.3,3.8-7.9,3.8-13.7c0-6.1-1.5-10.7-4.4-13.9c-2.9-3.2-5.9-4.8-8.8-4.8h-29V991.7
			z"/>
		<path d="M1846.6,1088.4c-13.3,0-25.3-2.5-36.1-7.6c-10.8-5.1-20-11.7-27.7-20c-7.7-8.3-13.7-17.7-17.9-28.3
			c-4.3-10.6-6.4-21.6-6.4-32.9c0-11.4,2.2-22.5,6.6-33.1c4.4-10.6,10.6-20,18.5-28.1s17.3-14.6,28.2-19.4
			c10.9-4.8,22.8-7.2,35.7-7.2c13.3,0,25.3,2.5,36.1,7.6c10.8,5.1,20,11.8,27.7,20.1c7.7,8.3,13.6,17.8,17.8,28.5
			c4.2,10.6,6.3,21.5,6.3,32.6c0,11.5-2.2,22.5-6.6,33c-4.4,10.6-10.6,19.9-18.4,28c-7.9,8.1-17.2,14.6-28.1,19.5
			C1871.4,1085.9,1859.5,1088.4,1846.6,1088.4z M1807.1,1000c0,5.9,0.8,11.6,2.5,17.1c1.6,5.5,4.1,10.3,7.4,14.6
			c3.3,4.3,7.4,7.7,12.4,10.3c5,2.6,10.9,3.9,17.8,3.9s12.8-1.3,17.9-4c5.1-2.7,9.2-6.2,12.4-10.6c3.2-4.3,5.6-9.3,7.1-14.8
			c1.6-5.6,2.3-11.2,2.3-16.9c0-5.9-0.8-11.6-2.5-17.1c-1.6-5.5-4.1-10.3-7.5-14.5c-3.4-4.2-7.5-7.5-12.5-10.1s-10.8-3.8-17.5-3.8
			c-6.9,0-12.8,1.3-17.8,3.9s-9.1,6.1-12.4,10.4c-3.3,4.3-5.7,9.2-7.2,14.7C1807.8,988.7,1807.1,994.3,1807.1,1000z"/>
	</g>
</g>
</svg>
