<?xml version="1.0" encoding="utf-8"?>
<!-- Generator: Adobe Illustrator 21.0.0, SVG Export Plug-In . SVG Version: 6.00 Build 0)  -->
<svg version="1.1" id="black" xmlns="http://www.w3.org/2000/svg" xmlns:xlink="http://www.w3.org/1999/xlink" x="0px" y="0px"
	 viewBox="0 0 2000 2000" style="enable-background:new 0 0 2000 2000;" xml:space="preserve">
<style type="text/css">
	.st0{fill:#478DB1;}
	.st1{fill:#2B2B2B;}
	.st2{fill:#FFFFFF;}
</style>
<g id="_x30_7_1_">
	<g>
		<g>
			<path class="st1" d="M466.7,893c13.8-1.3,27.8-2,41.9-2c7.3,0,14.7,0.7,22.1,2.2c7.4,1.4,14.1,4.2,20,8.3c6,4,10.9,9.6,14.7,16.8
				c3.8,7.2,5.7,16.4,5.7,27.8c0,11.4-1.9,20.6-5.7,27.8c-3.8,7.1-8.7,12.7-14.7,16.8c-5.9,4-12.6,6.7-19.9,8.2
				c-7.3,1.4-14.6,2.1-21.8,2.1c-1,0-2.2,0-3.5-0.1c-1.3-0.1-2.5-0.2-3.6-0.4v46.4h-35.2V893z M502,965.8l-0.9,4.7
				c4.4,0.6,8.7,0.6,12.8-0.1c4.1-0.6,7.7-1.9,10.8-3.8c3.1-2,5.6-4.6,7.5-7.9c1.9-3.3,2.8-7.4,2.8-12.1c0-4.7-0.7-8.7-2.2-12
				c-1.4-3.2-3.4-5.8-5.7-7.8c-2.4-1.9-5.1-3.3-8.1-4.2c-3-0.9-6.1-1.3-9.4-1.3c-1,0-2,0-3,0c-1,0-2.5,0.1-4.5,0.4V965.8z
				 M653,1049.3c-11.8,0-21.8-2-30.1-6c-8.3-4.1-15-9.6-20.3-16.7c-5.3-7.1-9.1-15.4-11.6-25.1c-2.4-9.7-3.6-20.3-3.6-31.8
				c0-11.5,1.2-22.1,3.6-31.8c2.5-9.7,6.3-18.1,11.6-25c5.3-7,12-12.4,20.3-16.3c8.3-3.9,18.3-5.9,30.1-5.9c11.8,0,21.8,2,30.1,5.9
				c8.3,3.9,15,9.3,20.2,16.3c5.3,7,9.1,15.3,11.5,25c2.4,9.7,3.6,20.3,3.6,31.8c0,11.5-1.2,22.1-3.6,31.8
				c-2.4,9.7-6.2,18-11.5,25.1c-5.2,7.1-12,12.6-20.2,16.7C674.9,1047.3,664.8,1049.3,653,1049.3L653,1049.3z M653,1019.1
				c9.9,0,17.1-4.1,21.5-12.3c4.4-8.2,6.6-20.6,6.6-37.1c0-16.6-2.1-28.7-6.4-36.5c-4.3-7.8-11.4-11.7-21.5-11.7
				c-10.3,0-17.6,3.9-22,11.7c-4.4,7.7-6.5,19.9-6.5,36.5c0,16.5,2.2,28.9,6.5,37.1C635.7,1015,642.9,1019.1,653,1019.1L653,1019.1z
				 M653,1019.1"/>
			<path class="st1" d="M741.5,893.9c6.9-0.9,13.2-1.5,19-2c5.7-0.5,11.9-0.8,18.3-0.8c7.9,0,15.8,0.8,23.6,2.3
				c7.8,1.5,14.8,4.1,21,7.9c6.2,3.7,11.2,8.8,15,15.1c3.8,6.3,5.7,14.3,5.7,24.1c0,5.6-0.8,10.6-2.3,15.1
				c-1.5,4.5-3.4,8.4-5.6,11.8c-2.2,3.4-4.7,6.3-7.5,8.8c-2.7,2.5-5.3,4.6-7.9,6.4l-1.1,0.6c0,0,1,1.6,2.9,4.8
				c1.9,3.2,4.3,7.1,7.1,11.8c2.8,4.7,5.8,9.9,9.1,15.4c3.3,5.5,6.4,10.6,9.2,15.2c2.8,4.6,5.1,8.6,6.9,11.8
				c1.8,3.2,2.7,4.6,2.7,4.5h-39.5l-40.8-71v71.2h-36V893.9z M777.5,974.4l7.6-3.5c1.8-0.8,4-1.9,6.6-3.2c2.6-1.3,5.1-3,7.6-5.1
				c2.5-2.1,4.5-4.5,6.2-7.4c1.7-2.9,2.6-6.5,2.6-10.7c0-4.4-0.7-8.1-2-11.1c-1.3-2.9-3.1-5.3-5.4-7.1c-2.3-1.8-5-3.1-8-3.8
				c-3.1-0.8-6.4-1.2-10-1.2c-0.7,0-1.6,0-2.5,0c-0.9,0-1.8,0.1-2.7,0.2V974.4z M777.5,974.4"/>
			<path class="st1" d="M895.4,923.3h-36.8v-30.7h111.1l-4.9,15.1l-5,15.6h-28.9l0.6,6v117.6h-36V923.3z M895.4,923.3"/>
			<path class="st1" d="M986.9,892.6h90.9c-1.4,5.5-2.8,10.7-4.3,15.6c-1.4,4.9-2.9,9.9-4.3,15.1h-47.4c0,0.6,0.1,1.4,0.2,2.5
				c0.1,1.1,0.2,1.9,0.2,2.5v22.7h43.6v30.8h-43.6v29.6l-0.4,4.9h56.9v30.7h-91.7V892.6z M986.9,892.6"/>
			<path class="st1" d="M1101.5,893.9c6.9-0.9,13.2-1.5,19-2c5.8-0.5,11.9-0.8,18.3-0.8c7.9,0,15.8,0.8,23.6,2.3
				c7.8,1.5,14.8,4.1,21,7.9c6.2,3.7,11.2,8.8,15,15.1c3.8,6.3,5.7,14.3,5.7,24.1c0,5.6-0.8,10.6-2.3,15.1
				c-1.5,4.5-3.4,8.4-5.6,11.8c-2.2,3.4-4.7,6.3-7.5,8.8c-2.7,2.5-5.4,4.6-7.9,6.4l-1.1,0.6c0,0,1,1.6,2.9,4.8
				c1.9,3.2,4.3,7.1,7.1,11.8c2.8,4.7,5.8,9.9,9.1,15.4c3.3,5.5,6.4,10.6,9.2,15.2c2.8,4.6,5.1,8.6,6.9,11.8
				c1.8,3.2,2.7,4.6,2.7,4.5h-39.5l-40.8-71v71.2h-36V893.9z M1137.5,974.4l7.6-3.5c1.8-0.8,4-1.9,6.6-3.2c2.6-1.3,5.1-3,7.6-5.1
				c2.5-2.1,4.5-4.5,6.2-7.4c1.7-2.9,2.6-6.5,2.6-10.7c0-4.4-0.6-8.1-2-11.1c-1.3-2.9-3.1-5.3-5.4-7.1c-2.3-1.8-5-3.1-8.1-3.8
				c-3.1-0.8-6.4-1.2-10-1.2c-0.7,0-1.6,0-2.5,0c-0.9,0-1.8,0.1-2.7,0.2V974.4z M1137.5,974.4"/>
			<path class="st1" d="M1289.5,893.9c6.9-0.9,13.2-1.5,19-2c5.8-0.5,11.9-0.8,18.3-0.8c7.9,0,15.8,0.8,23.6,2.3
				c7.8,1.5,14.8,4.1,21,7.9c6.2,3.7,11.2,8.8,15,15.1c3.8,6.3,5.7,14.3,5.7,24.1c0,5.6-0.8,10.6-2.3,15.1
				c-1.5,4.5-3.4,8.4-5.6,11.8c-2.2,3.4-4.7,6.3-7.5,8.8c-2.7,2.5-5.4,4.6-7.9,6.4l-1.1,0.6c0,0,1,1.6,2.9,4.8
				c1.9,3.2,4.3,7.1,7.1,11.8c2.8,4.7,5.8,9.9,9.1,15.4c3.3,5.5,6.4,10.6,9.2,15.2c2.8,4.6,5.1,8.6,6.9,11.8
				c1.8,3.2,2.7,4.6,2.7,4.5h-39.5l-40.8-71v71.2h-36V893.9z M1325.5,974.4l7.6-3.5c1.8-0.8,4-1.9,6.6-3.2c2.6-1.3,5.1-3,7.6-5.1
				c2.5-2.1,4.5-4.5,6.2-7.4c1.7-2.9,2.6-6.5,2.6-10.7c0-4.4-0.6-8.1-2-11.1c-1.3-2.9-3.1-5.3-5.4-7.1c-2.3-1.8-5-3.1-8.1-3.8
				c-3.1-0.8-6.4-1.2-10-1.2c-0.7,0-1.6,0-2.5,0c-0.9,0-1.8,0.1-2.7,0.2V974.4z M1325.5,974.4"/>
			<path class="st1" d="M1478.6,1049.3c-11.8,0-21.8-2-30.1-6c-8.3-4.1-15-9.6-20.3-16.7c-5.3-7.1-9.1-15.4-11.6-25.1
				c-2.4-9.7-3.6-20.3-3.6-31.8c0-11.5,1.2-22.1,3.6-31.8c2.5-9.7,6.3-18.1,11.6-25c5.3-7,12-12.4,20.3-16.3
				c8.3-3.9,18.3-5.9,30.1-5.9c11.8,0,21.8,2,30.1,5.9c8.3,3.9,15,9.3,20.2,16.3c5.3,7,9.1,15.3,11.5,25c2.4,9.7,3.6,20.3,3.6,31.8
				c0,11.5-1.2,22.1-3.6,31.8c-2.4,9.7-6.2,18-11.5,25.1c-5.2,7.1-12,12.6-20.2,16.7C1500.4,1047.3,1490.4,1049.3,1478.6,1049.3
				L1478.6,1049.3z M1478.6,1019.1c9.9,0,17.1-4.1,21.5-12.3c4.4-8.2,6.6-20.6,6.6-37.1c0-16.6-2.1-28.7-6.4-36.5
				c-4.3-7.8-11.4-11.7-21.5-11.7c-10.3,0-17.6,3.9-22,11.7c-4.3,7.7-6.5,19.9-6.5,36.5c0,16.5,2.2,28.9,6.5,37.1
				C1461.2,1015,1468.5,1019.1,1478.6,1019.1L1478.6,1019.1z M1478.6,1019.1"/>
			<path class="st1" d="M1670,1043.2c-6.1,2.5-11.9,4.1-17.4,4.9c-5.5,0.8-11.7,1.2-18.4,1.2c-12.2,0-23-1.9-32.2-5.8
				c-9.2-3.9-16.9-9.4-23-16.3c-6.1-7-10.7-15.3-13.8-24.9c-3.1-9.6-4.6-20.2-4.6-31.8c0-11.5,1.6-22.1,4.7-31.9
				c3.2-9.8,7.8-18.2,13.9-25.2c6.1-7.1,13.7-12.6,22.8-16.5c9.1-3.9,19.5-5.9,31.1-5.9c6.8,0,12.9,0.7,18.3,2
				c5.5,1.3,10.8,3.1,16,5.4l-8.8,28.6c-2.9-1.3-6.1-2.4-9.6-3.4c-3.5-1-7.7-1.5-12.6-1.5c-25.6,0-38.4,16.2-38.4,48.5
				c0,16.3,3.3,28.3,9.9,36.1c6.6,7.7,16.8,11.6,30.6,11.6c4.6,0,8.7-0.3,12.3-0.9c3.5-0.7,7-1.6,10.4-2.9L1670,1043.2z
				 M1670,1043.2"/>
			<path class="st1" d="M1728,968.6l40.6-75.8h39l-40.8,74.3l45.8,79.8h-39.3L1728,968.6z M1692.4,919.6H1676l14.1-27h37.3v154.5
				h-35V919.6z M1692.4,919.6"/>
		</g>
		<path class="st1" d="M1174,1078.6v6.5h647.2v-6.5H1174z M1105.1,1078.6H458.2v6.5h646.9v24.3l41.5-27.5l-41.5-27.6V1078.6z
			 M1105.1,1078.6"/>
	</g>
	<g>
		<path class="st1" d="M379.8,891.1H195.9c-9.5,0-17.2,7.7-17.2,17.2v183.9c0,9.5,7.7,17.2,17.2,17.2h183.9
			c9.5,0,17.2-7.7,17.2-17.2V908.3C397,898.8,389.3,891.1,379.8,891.1L379.8,891.1z M379.8,891.1"/>
		<g>
			<path class="st0" d="M339.2,1006.2c4.4-3,7.4-6.3,9.1-10.1c1.7-3.7,2.6-7.4,2.6-11.2c0-1.7-0.2-3.4-0.5-5.1
				c-0.5-2.1-1.1-4.1-2.1-6.1c-1.1-2.1-2.5-4-4.1-5.9c-1.7-1.7-3.3-3.1-4.8-4c-1.8-1-3.5-1.9-5-2.5c-0.4-0.2-0.9-0.3-1.5-0.5
				c-0.5-0.2-1.3-0.4-2.2-0.6c-1-0.2-1.8-0.4-2.2-0.5c-1-0.1-1.5-0.2-1.7-0.2h-29.7v16.6h29.3c0.1,0,0.5,0.1,1.1,0.2
				c0.6,0.2,1.1,0.3,1.4,0.4c2,0.8,3.4,2,4.2,3.6c0.8,1.6,1.2,3.1,1.2,4.5c0,1.5-0.4,3-1.2,4.5c-0.8,1.5-2.2,2.7-4.2,3.5
				c0,0-0.5,0.2-1.4,0.4c-0.7,0.2-1,0.2-1.1,0.2h-29.3v47.3h16.7v-30.7h8.8l13.8,30.7h18.2L339.2,1006.2z"/>
			<path class="st2" d="M278.7,959.6v16.6h-29.3c0,0-0.1,0-0.3,0c0,0,0,0,0,0c-0.2,0-0.4,0.1-0.7,0.1c-0.6,0.2-1.1,0.3-1.4,0.4
				c-0.9,0.4-1.6,0.8-2.2,1.3c-0.1,0.1-0.2,0.2-0.4,0.3c-0.7,0.6-1.2,1.2-1.6,1.9c0,0,0,0.1-0.1,0.1c-0.1,0.2-0.2,0.4-0.3,0.6
				c-0.4,0.9-0.7,1.9-0.8,2.8c-0.1,0.4-0.1,0.7-0.1,1.1c0,1.5,0.4,3,1.2,4.5c0.4,0.8,1,1.5,1.7,2.1c0.2,0.1,0.3,0.2,0.5,0.4
				c0,0,0,0,0,0c0.6,0.4,1.3,0.8,2,1.1c0,0,0.5,0.2,1.4,0.4c0.2,0.1,0.4,0.1,0.6,0.2c0,0,0.1,0,0.1,0c0.2,0,0.3,0.1,0.3,0.1h29.3
				v47.3H262v-30.7h-13c-0.2,0-0.8-0.1-1.7-0.2c-0.4-0.1-1.2-0.2-2.2-0.5c-0.9-0.2-1.6-0.4-2.2-0.6c-0.6-0.1-1.1-0.3-1.5-0.5
				c-1.5-0.6-3.2-1.5-5-2.5c-1.5-0.9-3.1-2.3-4.8-4c-1.7-1.9-3-3.8-4.1-5.9c-0.9-2-1.6-4.1-2.1-6.1c-0.4-1.7-0.5-3.4-0.5-5.1
				c0-0.2,0-0.4,0-0.6v-0.1c0-0.3,0-0.7,0.1-1.1c0.1-1.1,0.2-2.1,0.5-3.2c0.5-2.1,1.1-4.1,2.1-6.1c1.1-2.1,2.5-4,4.1-5.9
				c1.7-1.7,3.3-3.1,4.8-4c1.8-1,3.5-1.9,5-2.5c0.4-0.2,0.9-0.3,1.5-0.5c0.5-0.2,1.3-0.4,2.2-0.6c1-0.2,1.8-0.4,2.2-0.5
				c1-0.1,1.5-0.2,1.7-0.2H278.7z"/>
		</g>
	</g>
</g>
</svg>
