<?xml version="1.0" encoding="UTF-8" standalone="no"?> <!-- Created with Vectornator for iOS (http://vectornator.io/) --><!DOCTYPE svg PUBLIC "-//W3C//DTD SVG 1.1//EN" "http://www.w3.org/Graphics/SVG/1.1/DTD/svg11.dtd">
<svg height="100%" style="fill-rule:nonzero;clip-rule:evenodd;stroke-linecap:round;stroke-linejoin:round;" xmlns:xlink="http://www.w3.org/1999/xlink" xmlns="http://www.w3.org/2000/svg" xml:space="preserve" width="100%" xmlns:vectornator="http://vectornator.io" version="1.1" viewBox="0 0 2000 2000">
<metadata>
<vectornator:setting key="DimensionsVisible" value="1"/>
<vectornator:setting key="PencilOnly" value="0"/>
<vectornator:setting key="SnapToPoints" value="0"/>
<vectornator:setting key="OutlineMode" value="0"/>
<vectornator:setting key="RulersVisible" value="1"/>
<vectornator:setting key="CMYKEnabledKey" value="0"/>
<vectornator:setting key="GuidesVisible" value="1"/>
<vectornator:setting key="SnapToEdges" value="0"/>
<vectornator:setting key="DisplayWhiteBackground" value="0"/>
<vectornator:setting key="doHistoryDisabled" value="0"/>
<vectornator:setting key="SnapToGuides" value="1"/>
<vectornator:setting key="TimeLapseWatermarkDisabled" value="0"/>
<vectornator:setting key="Units" value="Points"/>
<vectornator:setting key="SnapToGrid" value="0"/>
<vectornator:setting key="DynamicGuides" value="0"/>
<vectornator:setting key="IsolateActiveLayer" value="0"/>
</metadata>
<defs/>
<g id="Black" vectornator:layerName="Black">
<path stroke="#3e2f34" stroke-width="1" d="M159.187+1066C122.758+1066+93.2273+1036.47+93.2273+1000.04C93.2273+963.616+122.758+934.085+159.187+934.085C195.6+934.085+225.125+963.591+225.147+1000C225.125+1036.43+195.613+1065.96+159.187+1066M233.674+874.881L162.887+892.819C160.462+893.35+157.952+893.35+155.527+892.819L84.7003+874.881C75.7053+872.97+66.8633+878.713+64.9533+887.709C64.7253+888.78+64.6043+889.873+64.5903+890.969L64.5903+1067.57C64.5983+1069.97+65.8063+1072.21+67.8083+1073.53L142.416+1120.66C152.645+1127.14+165.688+1127.14+175.918+1120.66L250.727+1073.53C252.729+1072.21+253.937+1069.97+253.945+1067.57L253.945+891.089C253.92+881.894+246.446+874.459+237.25+874.483C236.047+874.486+234.848+874.619+233.674+874.881" fill="#3e2f34" stroke-linecap="butt" opacity="1" stroke-linejoin="round"/>
<path d="M195.707+986.249L156.855+1025.1C151.963+1030.01+144.018+1030.02+139.108+1025.13L139.078+1025.1L122.668+1008.65C119.505+1004.98+119.913+999.448+123.58+996.285C126.878+993.439+131.766+993.447+135.056+996.304L147.966+1009.21L183.319+973.821C186.751+970.4+192.307+970.409+195.727+973.841C199.148+977.273+199.139+982.828+195.707+986.249M159.187+942.249C127.268+942.249+101.392+968.124+101.392+1000.04C101.392+1031.96+127.268+1057.84+159.187+1057.84C191.107+1057.84+216.983+1031.96+216.983+1000.04L216.983+1000C216.961+968.1+191.092+942.249+159.187+942.249" opacity="1" fill="#3e2f34"/>
<path d="M383.639+1158.46L378.708+1158.46L378.708+841.54L383.639+841.54L383.639+1158.46Z" opacity="1" fill="#3e2f34"/>
<path d="M655.036+912.636L655.036+1086.88L607.177+1086.88L607.177+1018.66L548.766+1018.66L548.766+1086.88L500.907+1086.88L500.907+912.636L548.766+912.636L548.766+976.935L607.177+976.935L607.177+912.636L655.036+912.636Z" opacity="1" fill="#3e2f34"/>
<path d="M815.784+1086.88L815.784+995.09L786.582+1059.64L761.058+1059.64L731.856+995.09L731.856+1086.88L683.991+1086.88L683.991+912.636L736.264+912.636L773.813+994.607L811.61+912.636L863.65+912.636L863.65+1086.88L815.784+1086.88Z" opacity="1" fill="#3e2f34"/>
<path d="M998.873+999.511C998.873+992.803+997.964+986.673+996.173+981.109C994.369+975.544+991.793+970.791+988.432+966.865C985.085+962.94+980.953+959.868+976.049+957.664C971.131+955.461+965.649+954.345+959.602+954.345L940.456+954.345L940.456+1045.16L959.602+1045.16C965.814+1045.16+971.379+1044.02+976.283+1041.73C981.201+1039.43+985.333+1036.25+988.68+1032.16C992.041+1028.06+994.576+1023.23+996.297+1017.67C998.005+1012.11+998.873+1006.05+998.873+999.511M892.603+1086.88L892.603+912.636L959.602+912.636C973.997+912.636+986.683+914.922+997.647+919.495C1008.6+924.082+1017.77+930.295+1025.13+938.16C1032.5+946.011+1038.05+955.213+1041.82+965.764C1045.58+976.315+1047.47+987.569+1047.47+999.511C1047.47+1012.76+1045.38+1024.75+1041.2+1035.46C1037.03+1046.18+1031.11+1055.34+1023.41+1062.96C1015.72+1070.56+1006.48+1076.45+995.677+1080.63C984.878+1084.8+972.853+1086.88+959.602+1086.88L892.603+1086.88Z" opacity="1" fill="#3e2f34"/>
<path d="M1142.69+1020.86L1127.22+966.866L1111.03+1020.86L1142.69+1020.86ZM1105.39+912.636L1149.07+912.636L1209.44+1086.88L1160.85+1086.88L1150.3+1052.76L1103.92+1052.76L1093.6+1086.88L1044.77+1086.88L1105.39+912.636Z" opacity="1" fill="#3e2f34"/>
<path d="M1431.06+912.636L1431.06+1086.88L1383.21+1086.88L1383.21+1018.66L1324.79+1018.66L1324.79+1086.88L1276.94+1086.88L1276.94+912.636L1324.79+912.636L1324.79+976.935L1383.21+976.935L1383.21+912.636L1431.06+912.636Z" opacity="1" fill="#3e2f34"/>
<path d="M1584.2+1045.16L1584.2+1086.88L1460.03+1086.88L1460.03+912.636L1582+912.636L1582+954.345L1507.88+954.345L1507.88+978.89L1571.2+978.89L1571.2+1017.67L1507.88+1017.67L1507.88+1045.16L1584.2+1045.16Z" opacity="1" fill="#3e2f34"/>
<path d="M1653.42+991.659L1683.6+991.659C1686.55+991.659+1689.29+990.02+1691.82+986.742C1694.36+983.477+1695.62+978.89+1695.62+973.009C1695.62+966.948+1694.15+962.333+1691.2+959.138C1688.27+955.942+1685.32+954.345+1682.37+954.345L1653.42+954.345L1653.42+991.659ZM1605.55+1086.88L1605.55+912.636L1685.57+912.636C1694.07+912.636+1701.92+914.385+1709.12+917.911C1716.33+921.424+1722.5+926.011+1727.65+931.644C1732.82+937.292+1736.86+943.765+1739.8+951.038C1742.75+958.325+1744.22+965.639+1744.22+973.009C1744.22+983.147+1742.02+992.596+1737.59+1001.36C1733.17+1010.1+1727.04+1017.27+1719.19+1022.83L1756+1086.88L1702+1086.88L1671.33+1033.38L1653.42+1033.38L1653.42+1086.88L1605.55+1086.88Z" opacity="1" fill="#3e2f34"/>
<path d="M1807.06+1000.01C1807.06+1005.89+1807.87+1011.58+1809.51+1017.06C1811.14+1022.54+1813.6+1027.4+1816.87+1031.66C1820.15+1035.92+1824.28+1039.36+1829.26+1041.96C1834.25+1044.59+1840.19+1045.89+1847.06+1045.89C1853.93+1045.89+1859.9+1044.54+1864.98+1041.84C1870.05+1039.14+1874.18+1035.63+1877.36+1031.29C1880.56+1026.96+1882.93+1022.01+1884.49+1016.44C1886.04+1010.89+1886.81+1005.24+1886.81+999.511C1886.81+993.615+1886+987.941+1884.36+982.458C1882.72+976.976+1880.23+972.141+1876.88+967.967C1873.52+963.794+1869.35+960.447+1864.36+957.912C1859.37+955.378+1853.52+954.111+1846.81+954.111C1839.94+954.111+1834+955.419+1829.02+958.036C1824.03+960.653+1819.9+964.125+1816.63+968.464C1813.35+972.802+1810.94+977.706+1809.39+983.188C1807.83+988.671+1807.06+994.277+1807.06+1000.01M1846.56+1088.36C1833.31+1088.36+1821.29+1085.82+1810.49+1080.75C1799.69+1075.68+1790.45+1069+1782.76+1060.74C1775.06+1052.49+1769.1+1043.04+1764.84+1032.39C1760.58+1021.76+1758.46+1010.81+1758.46+999.511C1758.46+988.065+1760.67+977.017+1765.09+966.383C1769.51+955.75+1775.68+946.369+1783.62+938.27C1791.55+930.171+1800.96+923.71+1811.84+918.889C1822.72+914.068+1834.62+911.644+1847.56+911.644C1860.81+911.644+1872.83+914.192+1883.63+919.261C1894.43+924.33+1903.67+931.038+1911.36+939.385C1919.05+947.719+1924.98+957.21+1929.16+967.843C1933.33+978.491+1935.41+989.373+1935.41+1000.49C1935.41+1011.95+1933.21+1022.96+1928.78+1033.51C1924.36+1044.06+1918.23+1053.38+1910.38+1061.48C1902.53+1069.58+1893.16+1076.08+1882.28+1080.99C1871.4+1085.9+1859.49+1088.36+1846.56+1088.36" opacity="1" fill="#3e2f34"/>
</g>
</svg>
