<?xml version="1.0" encoding="utf-8"?>
<!-- Generator: Adobe Illustrator 21.0.0, SVG Export Plug-In . SVG Version: 6.00 Build 0)  -->
<svg version="1.1" id="Black" xmlns="http://www.w3.org/2000/svg" xmlns:xlink="http://www.w3.org/1999/xlink" x="0px" y="0px"
	 viewBox="0 0 2000 2000" style="enable-background:new 0 0 2000 2000;" xml:space="preserve">
<g id="_x30_1">
	<path d="M1461.6,223.8l-439.1,111.3c-15,3.3-30.6,3.3-45.7,0L537.4,223.8c-55.8-11.9-110.6,23.8-122.5,79.6
		c-1.4,6.7-2.2,13.4-2.2,20.2v1095.6c0,14.9,7.5,28.7,20,36.9l462.8,292.4c63.5,40.2,144.4,40.2,207.8,0l464.1-292.4
		c12.4-8.2,19.9-22.1,20-36.9V324.4c-0.2-57-46.5-103.2-103.6-103C1476.3,221.4,1468.9,222.2,1461.6,223.8z M999.5,1409.5
		c-226,0-409.2-183.2-409.2-409.2s183.2-409.2,409.2-409.2c225.9,0,409,183,409.2,408.9C1408.5,1226,1225.5,1409.2,999.5,1409.5z"/>
	<path d="M999.5,641.7c-198,0-358.5,160.5-358.5,358.5s160.5,358.5,358.5,358.5s358.5-160.5,358.5-358.5c0-0.1,0-0.2,0-0.2
		C1357.9,802.1,1197.4,641.7,999.5,641.7z M1226,914.7l-241,241c-30.3,30.5-79.6,30.5-110.1,0.2c-0.1-0.1-0.1-0.1-0.2-0.2
		l-101.8-102c-19.6-22.7-17.1-57.1,5.7-76.7c20.5-17.7,50.8-17.6,71.2,0.1l80.1,80.1l219.3-219.6c21.3-21.2,55.8-21.2,77,0.1
		C1247.4,859,1247.3,893.5,1226,914.7z"/>
</g>
</svg>
