<?xml version="1.0" encoding="UTF-8" standalone="no"?>
<!-- Created with Inkscape (http://www.inkscape.org/) -->

<svg
   version="1.1"
   id="svg840"
   xml:space="preserve"
   width="2440.8425"
   height="300.67734"
   viewBox="0 0 2440.8425 300.67733"
   sodipodi:docname="Final Illustrator AI_07.ai.svg"
   inkscape:version="1.1 (c4e8f9e, 2021-05-24)"
   xmlns:inkscape="http://www.inkscape.org/namespaces/inkscape"
   xmlns:sodipodi="http://sodipodi.sourceforge.net/DTD/sodipodi-0.dtd"
   xmlns="http://www.w3.org/2000/svg"
   xmlns:svg="http://www.w3.org/2000/svg"><defs
     id="defs844"><clipPath
       clipPathUnits="userSpaceOnUse"
       id="clipPath864"><path
         d="M 0,0 H 2001 V 2001 H 0 Z"
         id="path862" /></clipPath></defs><sodipodi:namedview
     id="namedview842"
     pagecolor="#ffffff"
     bordercolor="#666666"
     borderopacity="1.0"
     inkscape:pageshadow="2"
     inkscape:pageopacity="0.0"
     inkscape:pagecheckerboard="false"
     showgrid="false"
     inkscape:showpageshadow="false"
     showborder="false"
     fit-margin-top="0"
     fit-margin-left="0"
     fit-margin-right="0"
     fit-margin-bottom="0"
     inkscape:zoom="0.18787499"
     inkscape:cx="1218.8956"
     inkscape:cy="380.5722"
     inkscape:window-width="1312"
     inkscape:window-height="955"
     inkscape:window-x="0"
     inkscape:window-y="25"
     inkscape:window-maximized="0"
     inkscape:current-layer="g846" /><g
     id="g846"
     inkscape:groupmode="layer"
     inkscape:label="Final Illustrator AI_07"
     transform="matrix(1.3333333,0,0,1.3333333,-112.912,-102.48894)"><g
       id="g848"
       transform="translate(0,-810.37929)"><path
         d="m 281.375,888.512 v 222.363 h -61.074 v -87.066 h -74.539 v 87.066 H 84.684 V 888.512 h 61.078 v 82.054 h 74.539 v -82.054 z"
         style="fill:#3d2f33;fill-opacity:1;fill-rule:nonzero;stroke:none"
         id="path850" /><path
         d="M 486.512,1110.875 V 993.734 l -37.266,82.371 h -32.57 l -37.27,-82.371 v 117.141 H 318.324 V 888.512 h 66.707 l 47.922,104.605 48.235,-104.605 h 66.41 v 222.363 z"
         style="fill:#3d2f33;fill-opacity:1;fill-rule:nonzero;stroke:none"
         id="path852" /></g><g
       id="g854"
       transform="translate(0,-810.37929)"><g
         id="g856"><g
           id="g858"><g
             id="g860"
             clip-path="url(#clipPath864)"><g
               id="g866"><path
                 d="m 720.16,999.375 c 0,-8.559 -1.16,-16.383 -3.445,-23.484 -2.301,-7.102 -5.59,-13.164 -9.879,-18.176 -4.27,-5.008 -9.543,-8.93 -15.801,-11.742 -6.277,-2.813 -13.273,-4.235 -20.988,-4.235 h -24.434 v 115.891 h 24.434 c 7.926,0 15.027,-1.457 21.285,-4.375 6.277,-2.938 11.551,-6.996 15.82,-12.219 4.289,-5.219 7.524,-11.39 9.723,-18.492 2.18,-7.082 3.285,-14.816 3.285,-23.168 m -135.613,111.5 V 888.512 h 85.5 c 18.367,0 34.558,2.918 48.551,8.754 13.972,5.851 25.679,13.781 35.066,23.816 9.406,10.02 16.488,21.762 21.305,35.227 4.801,13.464 7.207,27.828 7.207,43.066 0,16.91 -2.672,32.203 -7.996,45.879 -5.328,13.676 -12.887,25.367 -22.711,35.086 -9.809,9.703 -21.606,17.226 -35.387,22.555 -13.781,5.324 -29.125,7.98 -46.035,7.98 z"
                 style="fill:#3d2f33;fill-opacity:1;fill-rule:nonzero;stroke:none"
                 id="path868" /><path
                 d="m 903.695,1026.621 -19.742,-68.906 -20.672,68.906 z M 856.09,888.512 h 55.742 l 77.047,222.363 h -62.016 l -13.465,-43.543 h -59.187 l -13.164,43.543 H 778.73 Z"
                 style="fill:#3d2f33;fill-opacity:1;fill-rule:nonzero;stroke:none"
                 id="path870" /><path
                 d="m 1271.691,888.512 v 222.363 h -61.066 v -87.066 h -74.547 v 87.066 h -61.066 V 888.512 h 61.066 v 82.054 h 74.547 v -82.054 z"
                 style="fill:#3d2f33;fill-opacity:1;fill-rule:nonzero;stroke:none"
                 id="path872" /><path
                 d="m 1467.125,1057.629 v 53.246 H 1308.66 V 888.512 h 155.652 v 53.226 h -94.585 v 31.324 h 80.804 v 49.481 h -80.804 v 35.086 z"
                 style="fill:#3d2f33;fill-opacity:1;fill-rule:nonzero;stroke:none"
                 id="path874" /><path
                 d="m 1555.457,989.355 h 38.512 c 3.761,0 7.261,-2.089 10.496,-6.273 3.234,-4.168 4.851,-10.02 4.851,-17.527 0,-7.735 -1.882,-13.621 -5.644,-17.7 -3.742,-4.078 -7.504,-6.117 -11.266,-6.117 h -36.949 z m -61.086,121.52 V 888.512 h 102.113 c 10.844,0 20.864,2.23 30.059,6.73 9.191,4.485 17.066,10.336 23.641,17.528 6.593,7.207 11.761,15.468 15.504,24.75 3.761,9.296 5.644,18.632 5.644,28.035 0,12.937 -2.812,24.996 -8.457,36.175 -5.641,11.165 -13.465,20.305 -23.484,27.407 l 46.968,81.738 h -68.906 l -39.144,-68.273 h -22.852 v 68.273 z"
                 style="fill:#3d2f33;fill-opacity:1;fill-rule:nonzero;stroke:none"
                 id="path876" /><path
                 d="m 1751.523,1000.008 c 0,7.508 1.036,14.765 3.129,21.762 2.075,6.996 5.219,13.203 9.387,18.632 4.184,5.434 9.457,9.828 15.82,13.149 6.364,3.359 13.938,5.011 22.711,5.011 8.77,0 16.383,-1.722 22.868,-5.167 6.468,-3.446 11.742,-7.93 15.804,-13.465 4.078,-5.52 7.102,-11.848 9.086,-18.95 1.988,-7.085 2.973,-14.292 2.973,-21.605 0,-7.523 -1.039,-14.766 -3.129,-21.762 -2.094,-6.996 -5.274,-13.164 -9.547,-18.492 -4.289,-5.324 -9.613,-9.598 -15.977,-12.832 -6.363,-3.234 -13.836,-4.851 -22.394,-4.851 -8.774,0 -16.348,1.671 -22.711,5.011 -6.363,3.34 -11.637,7.77 -15.805,13.305 -4.183,5.539 -7.258,11.797 -9.246,18.793 -1.984,6.996 -2.969,14.148 -2.969,21.461 m 50.415,112.746 c -16.911,0 -32.258,-3.234 -46.04,-9.703 -13.781,-6.469 -25.574,-14.992 -35.382,-25.539 -9.828,-10.532 -17.438,-22.59 -22.871,-36.176 -5.43,-13.57 -8.137,-27.547 -8.137,-41.961 0,-14.605 2.812,-28.703 8.453,-42.273 5.644,-13.571 13.519,-25.543 23.644,-35.879 10.125,-10.336 22.129,-18.578 36.016,-24.731 13.887,-6.152 29.074,-9.246 45.582,-9.246 16.91,0 32.254,3.25 46.035,9.719 13.782,6.469 25.578,15.031 35.387,25.683 9.809,10.633 17.383,22.747 22.707,36.317 5.328,13.586 7.984,27.473 7.984,41.66 0,14.625 -2.816,28.668 -8.457,42.133 -5.64,13.465 -13.464,25.367 -23.484,35.703 -10.02,10.336 -21.973,18.633 -35.859,24.891 -13.887,6.273 -29.09,9.402 -45.578,9.402"
                 style="fill:#3d2f33;fill-opacity:1;fill-rule:nonzero;stroke:none"
                 id="path878" /></g></g></g></g></g></g></svg>
