<?xml version="1.0" encoding="UTF-8" standalone="no"?>
<!-- Created with Inkscape (http://www.inkscape.org/) -->

<svg
   version="1.1"
   id="svg824"
   xml:space="preserve"
   width="2494.4253"
   height="422.56131"
   viewBox="0 0 2494.4253 422.56131"
   sodipodi:docname="Final Illustrator AI_07.ai.2021_11_17_09_03_29.0.svg"
   inkscape:version="1.1 (c4e8f9e, 2021-05-24)"
   xmlns:inkscape="http://www.inkscape.org/namespaces/inkscape"
   xmlns:sodipodi="http://sodipodi.sourceforge.net/DTD/sodipodi-0.dtd"
   xmlns="http://www.w3.org/2000/svg"
   xmlns:svg="http://www.w3.org/2000/svg"><defs
     id="defs828"><clipPath
       clipPathUnits="userSpaceOnUse"
       id="clipPath842"><path
         d="M 0,0 H 1871 V 317 H 0 Z"
         id="path840" /></clipPath></defs><sodipodi:namedview
     id="namedview826"
     pagecolor="#ffffff"
     bordercolor="#666666"
     borderopacity="1.0"
     inkscape:pageshadow="2"
     inkscape:pageopacity="0.0"
     inkscape:pagecheckerboard="0"
     showgrid="false"
     inkscape:zoom="0.20084787"
     inkscape:cx="1247.2126"
     inkscape:cy="211.60294"
     inkscape:window-width="1312"
     inkscape:window-height="955"
     inkscape:window-x="0"
     inkscape:window-y="25"
     inkscape:window-maximized="0"
     inkscape:current-layer="g830" /><g
     id="g830"
     inkscape:groupmode="layer"
     inkscape:label="Final Illustrator AI_09"
     transform="matrix(1.3333333,0,0,1.3333333,0,1.0564033e-5)"><g
       id="g832"><g
         id="g834"><g
           id="g836"><g
             id="g838"
             clip-path="url(#clipPath842)"><g
               id="g844"><path
                 d="m 94.598,224.465 c -36.43,0 -65.961,-29.531 -65.961,-65.961 0,-36.43 29.531,-65.961 65.961,-65.961 36.414,0 65.937,29.508 65.961,65.922 -0.024,36.426 -29.536,65.957 -65.961,66 M 169.086,33.34 98.297,51.277 c -2.426,0.532 -4.934,0.532 -7.359,0 L 20.109,33.34 C 11.113,31.43 2.273,37.172 0.363,46.168 0.137,47.238 0.016,48.332 0,49.43 v 176.605 c 0.008,2.395 1.215,4.629 3.219,5.949 l 74.605,47.141 c 10.231,6.469 23.274,6.469 33.504,0 l 74.809,-47.141 c 2.004,-1.32 3.211,-3.554 3.218,-5.949 V 49.547 c -0.027,-9.192 -7.5,-16.629 -16.695,-16.606 -1.203,0.004 -2.402,0.137 -3.574,0.399"
                 style="fill:#3d2f33;fill-opacity:1;fill-rule:nonzero;stroke:none"
                 id="path846" /><path
                 d="m 131.117,144.711 -38.851,38.851 c -4.895,4.907 -12.84,4.922 -17.75,0.032 l -0.028,-0.032 -16.41,-16.453 c -3.164,-3.664 -2.754,-9.199 0.91,-12.363 3.301,-2.848 8.188,-2.84 11.477,0.02 l 12.91,12.91 35.352,-35.395 c 3.433,-3.422 8.988,-3.41 12.41,0.02 3.422,3.433 3.41,8.988 -0.02,12.41 m -36.519,-44 c -31.922,0 -57.797,25.875 -57.797,57.793 0,31.922 25.875,57.797 57.797,57.797 31.918,0 57.793,-25.875 57.793,-57.797 v -0.039 C 152.371,126.559 126.5,100.711 94.598,100.711"
                 style="fill:#3d2f33;fill-opacity:1;fill-rule:nonzero;stroke:none"
                 id="path848" /><path
                 d="m 314.117,0 h 4.93 v 316.922 h -4.93 z"
                 style="fill:#3d2f33;fill-opacity:1;fill-rule:nonzero;stroke:none"
                 id="path850" /><path
                 d="m 590.445,71.098 v 174.246 h -47.859 v -68.227 h -58.41 v 68.227 h -47.86 V 71.098 h 47.86 v 64.297 h 58.41 V 71.098 Z"
                 style="fill:#3d2f33;fill-opacity:1;fill-rule:nonzero;stroke:none"
                 id="path852" /><path
                 d="m 751.195,245.344 v -91.793 l -29.203,64.547 h -25.523 l -29.203,-64.547 v 91.793 H 619.402 V 71.098 h 52.27 l 37.551,81.968 37.797,-81.968 h 52.039 v 174.246 z"
                 style="fill:#3d2f33;fill-opacity:1;fill-rule:nonzero;stroke:none"
                 id="path854" /><path
                 d="m 934.281,157.973 c 0,-6.711 -0.906,-12.84 -2.699,-18.403 -1.805,-5.566 -4.379,-10.32 -7.738,-14.246 -3.348,-3.926 -7.481,-6.996 -12.387,-9.199 -4.918,-2.203 -10.398,-3.32 -16.445,-3.32 h -19.145 v 90.812 h 19.145 c 6.211,0 11.777,-1.14 16.679,-3.426 4.918,-2.3 9.051,-5.484 12.399,-9.574 3.359,-4.094 5.894,-8.926 7.617,-14.492 1.707,-5.551 2.574,-11.609 2.574,-18.152 M 828.012,245.344 V 71.098 h 67 c 14.394,0 27.082,2.285 38.047,6.855 10.949,4.59 20.121,10.801 27.476,18.668 7.371,7.852 12.922,17.051 16.695,27.602 3.762,10.55 5.649,21.804 5.649,33.75 0,13.25 -2.094,25.234 -6.266,35.949 -4.175,10.719 -10.097,19.879 -17.797,27.492 -7.687,7.606 -16.929,13.5 -27.73,17.676 -10.797,4.172 -22.824,6.254 -36.074,6.254 z"
                 style="fill:#3d2f33;fill-opacity:1;fill-rule:nonzero;stroke:none"
                 id="path856" /><path
                 d="m 1078.102,179.32 -15.469,-53.996 -16.199,53.996 z M 1040.801,71.094 h 43.679 l 60.372,174.25 h -48.594 l -10.551,-34.121 h -46.379 l -10.316,34.121 H 980.18 Z"
                 style="fill:#3d2f33;fill-opacity:1;fill-rule:nonzero;stroke:none"
                 id="path858" /><path
                 d="m 1366.469,71.098 v 174.246 h -47.852 v -68.227 h -58.418 v 68.227 h -47.851 V 71.098 h 47.851 v 64.297 h 58.418 V 71.098 Z"
                 style="fill:#3d2f33;fill-opacity:1;fill-rule:nonzero;stroke:none"
                 id="path860" /><path
                 d="m 1519.613,203.621 v 41.723 H 1395.438 V 71.098 h 121.972 v 41.707 h -74.121 v 24.547 h 63.32 v 38.773 h -63.32 v 27.496 z"
                 style="fill:#3d2f33;fill-opacity:1;fill-rule:nonzero;stroke:none"
                 id="path862" /><path
                 d="m 1588.828,150.121 h 30.18 c 2.949,0 5.691,-1.641 8.222,-4.918 2.536,-3.265 3.805,-7.851 3.805,-13.734 0,-6.059 -1.476,-10.676 -4.422,-13.871 -2.933,-3.196 -5.883,-4.793 -8.828,-4.793 h -28.957 z m -47.863,95.223 V 71.098 h 80.012 c 8.5,0 16.351,1.746 23.558,5.273 7.203,3.512 13.375,8.102 18.524,13.734 5.168,5.649 9.214,12.122 12.148,19.395 2.949,7.285 4.422,14.598 4.422,21.969 0,10.136 -2.203,19.586 -6.625,28.347 -4.422,8.746 -10.551,15.911 -18.402,21.477 l 36.804,64.051 h -53.992 l -30.676,-53.5 h -17.91 v 53.5 z"
                 style="fill:#3d2f33;fill-opacity:1;fill-rule:nonzero;stroke:none"
                 id="path864" /><path
                 d="m 1742.469,158.469 c 0,5.879 0.812,11.566 2.453,17.051 1.625,5.484 4.09,10.343 7.355,14.601 3.278,4.258 7.411,7.699 12.399,10.305 4.984,2.629 10.922,3.922 17.793,3.922 6.875,0 12.84,-1.348 17.922,-4.047 5.07,-2.699 9.203,-6.211 12.382,-10.551 3.196,-4.324 5.567,-9.285 7.122,-14.852 1.558,-5.55 2.328,-11.199 2.328,-16.925 0,-5.899 -0.813,-11.571 -2.453,-17.055 -1.637,-5.48 -4.129,-10.316 -7.477,-14.492 -3.363,-4.172 -7.535,-7.52 -12.523,-10.055 -4.985,-2.531 -10.84,-3.801 -17.547,-3.801 -6.875,0 -12.813,1.309 -17.797,3.926 -4.988,2.617 -9.117,6.09 -12.383,10.43 -3.277,4.336 -5.688,9.242 -7.246,14.722 -1.559,5.485 -2.328,11.09 -2.328,16.821 m 39.504,88.347 c -13.25,0 -25.274,-2.535 -36.075,-7.601 -10.796,-5.07 -20.043,-11.75 -27.726,-20.016 -7.699,-8.254 -13.664,-17.699 -17.922,-28.347 -4.258,-10.633 -6.379,-21.586 -6.379,-32.879 0,-11.45 2.207,-22.496 6.629,-33.129 4.422,-10.633 10.59,-20.016 18.523,-28.114 7.934,-8.097 17.344,-14.558 28.227,-19.382 10.883,-4.821 22.781,-7.243 35.715,-7.243 13.254,0 25.277,2.547 36.074,7.618 10.801,5.066 20.043,11.777 27.731,20.121 7.683,8.336 13.621,17.828 17.796,28.461 4.172,10.644 6.254,21.527 6.254,32.644 0,11.461 -2.207,22.465 -6.625,33.016 -4.422,10.551 -10.554,19.879 -18.406,27.976 -7.848,8.102 -17.215,14.602 -28.098,19.504 -10.882,4.918 -22.796,7.371 -35.718,7.371"
                 style="fill:#3d2f33;fill-opacity:1;fill-rule:nonzero;stroke:none"
                 id="path866" /></g></g></g></g></g></g></svg>
